<svg width="47" height="55" viewBox="0 0 47 55" fill="none" xmlns="http://www.w3.org/2000/svg">
<path d="M0.585786 13.5858C-0.195262 14.3668 -0.195262 15.6332 0.585786 16.4142L13.3137 29.1421C14.0948 29.9232 15.3611 29.9232 16.1421 29.1421C16.9232 28.3611 16.9232 27.0948 16.1421 26.3137L4.82843 15L16.1421 3.68629C16.9232 2.90524 16.9232 1.63891 16.1421 0.857864C15.3611 0.0768158 14.0948 0.0768158 13.3137 0.857864L0.585786 13.5858ZM46.5 13L2 13V17L46.5 17V13Z" fill="#1ED300"/>
<path d="M45.0607 44.0606C45.6464 43.4749 45.6464 42.5251 45.0607 41.9393L35.5147 32.3934C34.9289 31.8076 33.9792 31.8076 33.3934 32.3934C32.8076 32.9792 32.8076 33.9289 33.3934 34.5147L41.8787 43L33.3934 51.4853C32.8076 52.0711 32.8076 53.0208 33.3934 53.6066C33.9792 54.1924 34.9289 54.1924 35.5147 53.6066L45.0607 44.0606ZM11 44.5L44 44.5L44 41.5L11 41.5L11 44.5Z" fill="#FF2525"/>
</svg>
