<svg width="178" height="139" viewBox="0 0 178 139" fill="none" xmlns="http://www.w3.org/2000/svg">
<rect width="177.114" height="138.9" fill="white"/>
<path d="M10 128.56L10 74L57.25 101.28L10 128.56Z" fill="#F40808"/>
<path d="M67.699 128.9V75H105.275V86.242H80.558V117.658H106.122V128.9H67.699ZM73.936 106.878V96.098H101.887V106.878H73.936Z" fill="#2BB914"/>
<path d="M120.408 128.9V75H133.575V117.273H157.599V128.9H120.408Z" fill="#2BB914"/>
<path d="M10 63.9V10H33.87C37.6173 10 40.7487 10.539 43.264 11.617C45.8307 12.6437 47.7813 14.158 49.116 16.16C50.4507 18.1107 51.118 20.4977 51.118 23.321C51.118 26.3497 50.348 28.8907 48.808 30.944C47.3193 32.9973 45.1633 34.4347 42.34 35.256L42.263 33.639C44.573 34.2037 46.6007 35.1533 48.346 36.488C50.1427 37.7713 51.5287 39.3627 52.504 41.262C53.4793 43.11 53.967 45.2147 53.967 47.576C53.967 50.2967 53.4793 52.6837 52.504 54.737C51.58 56.7903 50.2453 58.51 48.5 59.896C46.806 61.2307 44.7783 62.2317 42.417 62.899C40.107 63.5663 37.5403 63.9 34.717 63.9H10ZM22.474 52.889H34.178C36.334 52.889 38.0023 52.3757 39.183 51.349C40.415 50.3223 41.031 48.8593 41.031 46.96C41.031 45.7793 40.723 44.7783 40.107 43.957C39.5423 43.1357 38.721 42.5197 37.643 42.109C36.565 41.6983 35.2817 41.493 33.793 41.493H22.474V52.889ZM22.474 31.56H32.099C33.4337 31.56 34.563 31.3547 35.487 30.944C36.411 30.482 37.104 29.866 37.566 29.096C38.0793 28.2747 38.336 27.325 38.336 26.247C38.336 24.6043 37.7713 23.321 36.642 22.397C35.5127 21.473 33.8187 21.011 31.56 21.011H22.474V31.56Z" fill="#181818"/>
<path d="M57.2912 63.9L78.6202 10H89.7852L110.96 63.9H97.7162L87.4752 36.565C87.1159 35.487 86.7052 34.332 86.2432 33.1C85.8326 31.868 85.4219 30.5847 85.0112 29.25C84.6006 27.9153 84.2156 26.632 83.8562 25.4C83.4969 24.168 83.1889 23.013 82.9322 21.935L85.1652 21.858C84.8572 23.1413 84.5236 24.399 84.1642 25.631C83.8049 26.863 83.4199 28.095 83.0092 29.327C82.5986 30.559 82.1622 31.791 81.7002 33.023C81.2896 34.2037 80.8532 35.4357 80.3912 36.719L70.2272 63.9H57.2912ZM67.4552 53.582L71.6132 43.572H96.2532L100.411 53.582H67.4552Z" fill="#181818"/>
<path d="M117.68 63.9V10H140.395C144.347 10 147.966 10.6673 151.252 12.002C154.537 13.2853 157.36 15.1333 159.722 17.546C162.083 19.9073 163.905 22.7563 165.189 26.093C166.472 29.3783 167.114 32.9973 167.114 36.95C167.114 40.954 166.472 44.5987 165.189 47.884C163.905 51.1693 162.083 54.0183 159.722 56.431C157.36 58.7923 154.537 60.6403 151.252 61.975C148.018 63.2583 144.399 63.9 140.395 63.9H117.68ZM130.847 54.814L129.153 52.273H140.01C142.114 52.273 144.014 51.9137 145.708 51.195C147.402 50.4763 148.839 49.4497 150.02 48.115C151.252 46.729 152.176 45.112 152.792 43.264C153.459 41.3647 153.793 39.26 153.793 36.95C153.793 34.64 153.459 32.561 152.792 30.713C152.176 28.8137 151.252 27.1967 150.02 25.862C148.839 24.476 147.402 23.4237 145.708 22.705C144.014 21.9863 142.114 21.627 140.01 21.627H128.922L130.847 19.24V54.814Z" fill="#181818"/>
</svg>
