<svg width="284" height="185" viewBox="0 0 284 185" fill="none" xmlns="http://www.w3.org/2000/svg">
<rect width="284" height="185" fill="white"/>
<path d="M10.2727 42.5682V34.4545H48.5V42.5682H34.25V81H24.5227V42.5682H10.2727ZM64.2955 60.8182V81H54.6136V34.4545H64.0227V52.25H64.4318C65.2197 50.1894 66.4924 48.5758 68.25 47.4091C70.0076 46.2273 72.2121 45.6364 74.8636 45.6364C77.2879 45.6364 79.4015 46.1667 81.2045 47.2273C83.0227 48.2727 84.4318 49.7803 85.4318 51.75C86.447 53.7045 86.947 56.0455 86.9318 58.7727V81H77.25V60.5C77.2652 58.3485 76.7197 56.6742 75.6136 55.4773C74.5227 54.2803 72.9924 53.6818 71.0227 53.6818C69.7045 53.6818 68.5379 53.9621 67.5227 54.5227C66.5227 55.0833 65.7348 55.9015 65.1591 56.9773C64.5985 58.0379 64.3106 59.3182 64.2955 60.8182ZM110.46 81.6818C106.869 81.6818 103.778 80.9545 101.188 79.5C98.6117 78.0303 96.6269 75.9545 95.233 73.2727C93.839 70.5758 93.142 67.3864 93.142 63.7045C93.142 60.1136 93.839 56.9621 95.233 54.25C96.6269 51.5379 98.589 49.4242 101.119 47.9091C103.665 46.3939 106.65 45.6364 110.074 45.6364C112.377 45.6364 114.521 46.0076 116.506 46.75C118.506 47.4773 120.248 48.5758 121.733 50.0455C123.233 51.5152 124.4 53.3636 125.233 55.5909C126.066 57.803 126.483 60.3939 126.483 63.3636V66.0227H97.0057V60.0227H117.369C117.369 58.6288 117.066 57.3939 116.46 56.3182C115.854 55.2424 115.013 54.4015 113.938 53.7955C112.877 53.1742 111.642 52.8636 110.233 52.8636C108.763 52.8636 107.46 53.2045 106.324 53.8864C105.203 54.553 104.324 55.4545 103.688 56.5909C103.051 57.7121 102.725 58.9621 102.71 60.3409V66.0455C102.71 67.7727 103.028 69.2652 103.665 70.5227C104.316 71.7803 105.233 72.75 106.415 73.4318C107.597 74.1136 108.998 74.4545 110.619 74.4545C111.695 74.4545 112.68 74.303 113.574 74C114.468 73.697 115.233 73.2424 115.869 72.6364C116.506 72.0303 116.991 71.2879 117.324 70.4091L126.278 71C125.824 73.1515 124.892 75.0303 123.483 76.6364C122.089 78.2273 120.286 79.4697 118.074 80.3636C115.877 81.2424 113.339 81.6818 110.46 81.6818Z" fill="#212121"/>
<path d="M26.858 149V102.455H45.2216C48.7519 102.455 51.7595 103.129 54.2443 104.477C56.7292 105.811 58.6231 107.667 59.9261 110.045C61.2443 112.409 61.9034 115.136 61.9034 118.227C61.9034 121.318 61.2367 124.045 59.9034 126.409C58.5701 128.773 56.6383 130.614 54.108 131.932C51.5928 133.25 48.5473 133.909 44.9716 133.909H33.267V126.023H43.3807C45.2746 126.023 46.8352 125.697 48.0625 125.045C49.3049 124.379 50.2292 123.462 50.8352 122.295C51.4564 121.114 51.767 119.758 51.767 118.227C51.767 116.682 51.4564 115.333 50.8352 114.182C50.2292 113.015 49.3049 112.114 48.0625 111.477C46.8201 110.826 45.2443 110.5 43.3352 110.5H36.6989V149H26.858ZM68.1136 149V114.091H77.5V120.182H77.8636C78.5 118.015 79.5682 116.379 81.0682 115.273C82.5682 114.152 84.2955 113.591 86.25 113.591C86.7348 113.591 87.2576 113.621 87.8182 113.682C88.3788 113.742 88.8712 113.826 89.2955 113.932V122.523C88.8409 122.386 88.2121 122.265 87.4091 122.159C86.6061 122.053 85.8712 122 85.2045 122C83.7803 122 82.5076 122.311 81.3864 122.932C80.2803 123.538 79.4015 124.386 78.75 125.477C78.1136 126.568 77.7955 127.826 77.7955 129.25V149H68.1136ZM108.449 149.682C104.919 149.682 101.866 148.932 99.2898 147.432C96.7292 145.917 94.7519 143.811 93.358 141.114C91.964 138.402 91.267 135.258 91.267 131.682C91.267 128.076 91.964 124.924 93.358 122.227C94.7519 119.515 96.7292 117.409 99.2898 115.909C101.866 114.394 104.919 113.636 108.449 113.636C111.979 113.636 115.025 114.394 117.585 115.909C120.161 117.409 122.146 119.515 123.54 122.227C124.934 124.924 125.631 128.076 125.631 131.682C125.631 135.258 124.934 138.402 123.54 141.114C122.146 143.811 120.161 145.917 117.585 147.432C115.025 148.932 111.979 149.682 108.449 149.682ZM108.494 142.182C110.1 142.182 111.441 141.727 112.517 140.818C113.593 139.894 114.403 138.636 114.949 137.045C115.509 135.455 115.79 133.644 115.79 131.614C115.79 129.583 115.509 127.773 114.949 126.182C114.403 124.591 113.593 123.333 112.517 122.409C111.441 121.485 110.1 121.023 108.494 121.023C106.873 121.023 105.509 121.485 104.403 122.409C103.313 123.333 102.487 124.591 101.926 126.182C101.381 127.773 101.108 129.583 101.108 131.614C101.108 133.644 101.381 135.455 101.926 137.045C102.487 138.636 103.313 139.894 104.403 140.818C105.509 141.727 106.873 142.182 108.494 142.182ZM131.926 114.091H141.608V150.727C141.608 153.424 141.078 155.606 140.017 157.273C138.956 158.939 137.434 160.159 135.449 160.932C133.479 161.705 131.123 162.091 128.381 162.091C128.047 162.091 127.729 162.083 127.426 162.068C127.108 162.068 126.775 162.061 126.426 162.045V154.477C126.684 154.492 126.911 154.5 127.108 154.5C127.29 154.515 127.487 154.523 127.699 154.523C129.259 154.523 130.35 154.189 130.972 153.523C131.608 152.871 131.926 151.886 131.926 150.568V114.091ZM136.744 109.591C135.32 109.591 134.093 109.114 133.062 108.159C132.032 107.189 131.517 106.03 131.517 104.682C131.517 103.348 132.032 102.205 133.062 101.25C134.093 100.28 135.32 99.7955 136.744 99.7955C138.199 99.7955 139.434 100.28 140.449 101.25C141.479 102.205 141.994 103.348 141.994 104.682C141.994 106.03 141.479 107.189 140.449 108.159C139.434 109.114 138.199 109.591 136.744 109.591ZM165.273 149.682C161.682 149.682 158.591 148.955 156 147.5C153.424 146.03 151.439 143.955 150.045 141.273C148.652 138.576 147.955 135.386 147.955 131.705C147.955 128.114 148.652 124.962 150.045 122.25C151.439 119.538 153.402 117.424 155.932 115.909C158.477 114.394 161.462 113.636 164.886 113.636C167.189 113.636 169.333 114.008 171.318 114.75C173.318 115.477 175.061 116.576 176.545 118.045C178.045 119.515 179.212 121.364 180.045 123.591C180.879 125.803 181.295 128.394 181.295 131.364V134.023H151.818V128.023H172.182C172.182 126.629 171.879 125.394 171.273 124.318C170.667 123.242 169.826 122.402 168.75 121.795C167.689 121.174 166.455 120.864 165.045 120.864C163.576 120.864 162.273 121.205 161.136 121.886C160.015 122.553 159.136 123.455 158.5 124.591C157.864 125.712 157.538 126.962 157.523 128.341V134.045C157.523 135.773 157.841 137.265 158.477 138.523C159.129 139.78 160.045 140.75 161.227 141.432C162.409 142.114 163.811 142.455 165.432 142.455C166.508 142.455 167.492 142.303 168.386 142C169.28 141.697 170.045 141.242 170.682 140.636C171.318 140.03 171.803 139.288 172.136 138.409L181.091 139C180.636 141.152 179.705 143.03 178.295 144.636C176.902 146.227 175.098 147.47 172.886 148.364C170.689 149.242 168.152 149.682 165.273 149.682ZM203.386 149.682C199.811 149.682 196.735 148.924 194.159 147.409C191.598 145.879 189.629 143.758 188.25 141.045C186.886 138.333 186.205 135.212 186.205 131.682C186.205 128.106 186.894 124.97 188.273 122.273C189.667 119.561 191.644 117.447 194.205 115.932C196.765 114.402 199.811 113.636 203.341 113.636C206.386 113.636 209.053 114.189 211.341 115.295C213.629 116.402 215.439 117.955 216.773 119.955C218.106 121.955 218.841 124.303 218.977 127H209.841C209.583 125.258 208.902 123.856 207.795 122.795C206.705 121.72 205.273 121.182 203.5 121.182C202 121.182 200.689 121.591 199.568 122.409C198.462 123.212 197.598 124.386 196.977 125.932C196.356 127.477 196.045 129.348 196.045 131.545C196.045 133.773 196.348 135.667 196.955 137.227C197.576 138.788 198.447 139.977 199.568 140.795C200.689 141.614 202 142.023 203.5 142.023C204.606 142.023 205.598 141.795 206.477 141.341C207.371 140.886 208.106 140.227 208.682 139.364C209.273 138.485 209.659 137.432 209.841 136.205H218.977C218.826 138.871 218.098 141.22 216.795 143.25C215.508 145.265 213.727 146.841 211.455 147.977C209.182 149.114 206.492 149.682 203.386 149.682ZM243.744 114.091V121.364H222.722V114.091H243.744ZM227.494 105.727H237.176V138.273C237.176 139.167 237.313 139.864 237.585 140.364C237.858 140.848 238.237 141.189 238.722 141.386C239.222 141.583 239.797 141.682 240.449 141.682C240.903 141.682 241.358 141.644 241.812 141.568C242.267 141.477 242.616 141.409 242.858 141.364L244.381 148.568C243.896 148.72 243.214 148.894 242.335 149.091C241.456 149.303 240.388 149.432 239.131 149.477C236.797 149.568 234.752 149.258 232.994 148.545C231.252 147.833 229.896 146.727 228.926 145.227C227.956 143.727 227.479 141.833 227.494 139.545V105.727Z" fill="#03AD00"/>
<path d="M147.795 81V34.4545H166.432C169.856 34.4545 172.712 34.9621 175 35.9773C177.288 36.9924 179.008 38.4015 180.159 40.2045C181.311 41.9924 181.886 44.053 181.886 46.3864C181.886 48.2045 181.523 49.803 180.795 51.1818C180.068 52.5455 179.068 53.6667 177.795 54.5455C176.538 55.4091 175.098 56.0227 173.477 56.3864V56.8409C175.25 56.9167 176.909 57.4167 178.455 58.3409C180.015 59.2652 181.28 60.5606 182.25 62.2273C183.22 63.8788 183.705 65.8485 183.705 68.1364C183.705 70.6061 183.091 72.8106 181.864 74.75C180.652 76.6742 178.856 78.197 176.477 79.3182C174.098 80.4394 171.167 81 167.682 81H147.795ZM157.636 72.9545H165.659C168.402 72.9545 170.402 72.4318 171.659 71.3864C172.917 70.3258 173.545 68.9167 173.545 67.1591C173.545 65.8712 173.235 64.7348 172.614 63.75C171.992 62.7652 171.106 61.9924 169.955 61.4318C168.818 60.8712 167.462 60.5909 165.886 60.5909H157.636V72.9545ZM157.636 53.9318H164.932C166.28 53.9318 167.477 53.697 168.523 53.2273C169.583 52.7424 170.417 52.0606 171.023 51.1818C171.644 50.303 171.955 49.25 171.955 48.0227C171.955 46.3409 171.356 44.9848 170.159 43.9545C168.977 42.9242 167.295 42.4091 165.114 42.4091H157.636V53.9318ZM206.608 81H190.108V34.4545H206.744C211.426 34.4545 215.456 35.3864 218.835 37.25C222.214 39.0985 224.813 41.7576 226.631 45.2273C228.464 48.697 229.381 52.8485 229.381 57.6818C229.381 62.5303 228.464 66.697 226.631 70.1818C224.813 73.6667 222.199 76.3409 218.79 78.2045C215.396 80.0682 211.335 81 206.608 81ZM199.949 72.5682H206.199C209.108 72.5682 211.555 72.053 213.54 71.0227C215.54 69.9773 217.04 68.3636 218.04 66.1818C219.055 63.9848 219.562 61.1515 219.562 57.6818C219.562 54.2424 219.055 51.4318 218.04 49.25C217.04 47.0682 215.547 45.4621 213.562 44.4318C211.578 43.4015 209.131 42.8864 206.222 42.8864H199.949V72.5682ZM261.92 47.8409C261.739 46.0076 260.958 44.5833 259.58 43.5682C258.201 42.553 256.33 42.0455 253.966 42.0455C252.36 42.0455 251.004 42.2727 249.898 42.7273C248.792 43.1667 247.943 43.7803 247.352 44.5682C246.777 45.3561 246.489 46.25 246.489 47.25C246.458 48.0833 246.633 48.8106 247.011 49.4318C247.405 50.053 247.943 50.5909 248.625 51.0455C249.307 51.4848 250.095 51.8712 250.989 52.2045C251.883 52.5227 252.837 52.7955 253.852 53.0227L258.034 54.0227C260.064 54.4773 261.928 55.0833 263.625 55.8409C265.322 56.5985 266.792 57.5303 268.034 58.6364C269.277 59.7424 270.239 61.0455 270.92 62.5455C271.617 64.0455 271.973 65.7652 271.989 67.7045C271.973 70.553 271.246 73.0227 269.807 75.1136C268.383 77.1894 266.322 78.803 263.625 79.9545C260.943 81.0909 257.708 81.6591 253.92 81.6591C250.163 81.6591 246.89 81.0833 244.102 79.9318C241.33 78.7803 239.163 77.0758 237.602 74.8182C236.057 72.5455 235.246 69.7348 235.17 66.3864H244.693C244.799 67.947 245.246 69.25 246.034 70.2955C246.837 71.3258 247.905 72.1061 249.239 72.6364C250.587 73.1515 252.11 73.4091 253.807 73.4091C255.473 73.4091 256.92 73.1667 258.148 72.6818C259.39 72.197 260.352 71.5227 261.034 70.6591C261.716 69.7955 262.057 68.803 262.057 67.6818C262.057 66.6364 261.746 65.7576 261.125 65.0455C260.519 64.3333 259.625 63.7273 258.443 63.2273C257.277 62.7273 255.845 62.2727 254.148 61.8636L249.08 60.5909C245.155 59.6364 242.057 58.1439 239.784 56.1136C237.511 54.0833 236.383 51.3485 236.398 47.9091C236.383 45.0909 237.133 42.6288 238.648 40.5227C240.178 38.4167 242.277 36.7727 244.943 35.5909C247.61 34.4091 250.64 33.8182 254.034 33.8182C257.489 33.8182 260.504 34.4091 263.08 35.5909C265.67 36.7727 267.686 38.4167 269.125 40.5227C270.564 42.6288 271.307 45.0682 271.352 47.8409H261.92Z" fill="#FD0505"/>
</svg>
